<mxfile host="Electron" agent="Mozilla/5.0 (Windows NT 10.0; Win64; x64) AppleWebKit/537.36 (KHTML, like Gecko) draw.io/24.7.5 Chrome/126.0.6478.183 Electron/31.3.0 Safari/537.36" version="24.7.5">
  <diagram name="Страница — 1" id="peYWbM6JjHPWEsA8kkQf">
    <mxGraphModel dx="1434" dy="836" grid="1" gridSize="10" guides="1" tooltips="1" connect="1" arrows="1" fold="1" page="1" pageScale="1" pageWidth="1169" pageHeight="827" math="0" shadow="0">
      <root>
        <mxCell id="0" />
        <mxCell id="1" parent="0" />
        <mxCell id="jNaZMfqbhY5TBQwAqyAb-2" value="" style="sketch=0;pointerEvents=1;shadow=0;dashed=0;html=1;strokeColor=none;fillColor=#7fba42;labelPosition=center;verticalLabelPosition=bottom;verticalAlign=top;outlineConnect=0;align=center;shape=mxgraph.office.services.excel_services;aspect=fixed;" parent="1" vertex="1">
          <mxGeometry x="882.5" y="275.75" width="67.32" height="55" as="geometry" />
        </mxCell>
        <mxCell id="jNaZMfqbhY5TBQwAqyAb-9" value="" style="sketch=0;shadow=0;dashed=0;html=1;strokeColor=none;labelPosition=center;verticalLabelPosition=bottom;verticalAlign=top;outlineConnect=0;align=center;shape=mxgraph.office.databases.database_mini_2;fillColor=#7FBA42;textShadow=0;" parent="1" vertex="1">
          <mxGeometry x="503" y="299" width="163" height="230" as="geometry" />
        </mxCell>
        <mxCell id="jNaZMfqbhY5TBQwAqyAb-10" value="Business Layer" style="text;strokeColor=none;align=center;fillColor=none;html=1;verticalAlign=middle;whiteSpace=wrap;rounded=0;fontColor=#FFFFFF;fontSize=16;textShadow=1;fontStyle=1" parent="1" vertex="1">
          <mxGeometry x="555" y="480" width="60" height="30" as="geometry" />
        </mxCell>
        <mxCell id="jNaZMfqbhY5TBQwAqyAb-12" value="" style="sketch=0;pointerEvents=1;shadow=0;dashed=0;html=1;strokeColor=none;fillColor=#7fba42;labelPosition=center;verticalLabelPosition=bottom;verticalAlign=top;outlineConnect=0;align=center;shape=mxgraph.office.sites.website;aspect=fixed;" parent="1" vertex="1">
          <mxGeometry x="60" y="401" width="66.2" height="55" as="geometry" />
        </mxCell>
        <mxCell id="jNaZMfqbhY5TBQwAqyAb-15" value="" style="endArrow=none;dashed=1;html=1;rounded=0;strokeWidth=3;strokeColor=#7fba42;opacity=20;" parent="1" edge="1">
          <mxGeometry width="50" height="50" relative="1" as="geometry">
            <mxPoint x="410" y="730" as="sourcePoint" />
            <mxPoint x="410" y="20" as="targetPoint" />
          </mxGeometry>
        </mxCell>
        <mxCell id="jNaZMfqbhY5TBQwAqyAb-16" value="" style="endArrow=none;dashed=1;html=1;rounded=0;strokeWidth=3;strokeColor=#7fba42;opacity=20;" parent="1" edge="1">
          <mxGeometry width="50" height="50" relative="1" as="geometry">
            <mxPoint x="750" y="730" as="sourcePoint" />
            <mxPoint x="750" y="20" as="targetPoint" />
          </mxGeometry>
        </mxCell>
        <mxCell id="jNaZMfqbhY5TBQwAqyAb-17" value="Staging Layer" style="text;strokeColor=none;align=center;fillColor=none;html=1;verticalAlign=middle;whiteSpace=wrap;rounded=0;fontSize=16;textShadow=1;fontColor=#FFFFFF;fontStyle=1" parent="1" vertex="1">
          <mxGeometry x="555" y="389" width="60" height="30" as="geometry" />
        </mxCell>
        <mxCell id="jNaZMfqbhY5TBQwAqyAb-21" value="" style="shape=flexArrow;endArrow=classic;html=1;rounded=0;strokeColor=#7fba42;fontSize=12;" parent="1" edge="1">
          <mxGeometry width="50" height="50" relative="1" as="geometry">
            <mxPoint x="290" y="428" as="sourcePoint" />
            <mxPoint x="490" y="429" as="targetPoint" />
          </mxGeometry>
        </mxCell>
        <mxCell id="jNaZMfqbhY5TBQwAqyAb-22" value="ETL / ELT" style="edgeLabel;html=1;align=center;verticalAlign=middle;resizable=0;points=[];fontColor=#7fba42;fontStyle=1;fontSize=18;labelBorderColor=none;textShadow=0;labelBackgroundColor=none;" parent="jNaZMfqbhY5TBQwAqyAb-21" vertex="1" connectable="0">
          <mxGeometry x="-0.34" relative="1" as="geometry">
            <mxPoint x="24" y="-14" as="offset" />
          </mxGeometry>
        </mxCell>
        <mxCell id="jNaZMfqbhY5TBQwAqyAb-24" value="" style="endArrow=none;dashed=1;html=1;rounded=0;strokeWidth=3;strokeColor=#7fba42;opacity=20;" parent="1" edge="1">
          <mxGeometry width="50" height="50" relative="1" as="geometry">
            <mxPoint x="1130" y="160" as="sourcePoint" />
            <mxPoint x="30" y="160" as="targetPoint" />
          </mxGeometry>
        </mxCell>
        <mxCell id="jNaZMfqbhY5TBQwAqyAb-25" value="Website" style="edgeLabel;html=1;align=center;verticalAlign=middle;resizable=0;points=[];fontColor=#7fba42;fontStyle=1;fontSize=18;labelBorderColor=none;textShadow=0;labelBackgroundColor=none;" parent="1" vertex="1" connectable="0">
          <mxGeometry x="229.99917501546838" y="418.99999587507745" as="geometry">
            <mxPoint x="-139" y="51" as="offset" />
          </mxGeometry>
        </mxCell>
        <mxCell id="jNaZMfqbhY5TBQwAqyAb-26" value="&lt;span style=&quot;font-family: Helvetica; font-size: 18px; font-style: normal; font-variant-ligatures: normal; font-variant-caps: normal; letter-spacing: normal; orphans: 2; text-indent: 0px; text-transform: none; widows: 2; word-spacing: 0px; -webkit-text-stroke-width: 0px; white-space: nowrap; text-decoration-thickness: initial; text-decoration-style: initial; text-decoration-color: initial; float: none; display: inline !important;&quot;&gt;Excel&lt;/span&gt;" style="text;whiteSpace=wrap;html=1;textShadow=0;fontColor=#7fba42;labelBackgroundColor=none;align=center;fontStyle=1" parent="1" vertex="1">
          <mxGeometry x="857.5" y="330.75" width="100" height="50" as="geometry" />
        </mxCell>
        <mxCell id="jNaZMfqbhY5TBQwAqyAb-70" value="CRM" style="text;strokeColor=none;align=center;fillColor=none;html=1;verticalAlign=middle;whiteSpace=wrap;rounded=0;fontSize=16;textShadow=0;fontColor=#7fba42;fontStyle=1" parent="1" vertex="1">
          <mxGeometry x="218.95000000000002" y="570.5" width="60" height="30" as="geometry" />
        </mxCell>
        <mxCell id="jNaZMfqbhY5TBQwAqyAb-74" value="Data Warehouse" style="edgeLabel;html=1;align=center;verticalAlign=middle;resizable=0;points=[];fontColor=#7fba42;fontStyle=1;fontSize=22;labelBorderColor=none;textShadow=0;labelBackgroundColor=none;" parent="1" vertex="1" connectable="0">
          <mxGeometry x="719.9991750154684" y="509.99999587507745" as="geometry">
            <mxPoint x="-139" y="51" as="offset" />
          </mxGeometry>
        </mxCell>
        <mxCell id="jNaZMfqbhY5TBQwAqyAb-75" value="Source Level" style="edgeLabel;html=1;align=center;verticalAlign=middle;resizable=0;points=[];fontColor=#7fba42;fontStyle=1;fontSize=28;labelBorderColor=none;textShadow=0;labelBackgroundColor=none;" parent="1" vertex="1" connectable="0">
          <mxGeometry x="339.9991750154684" y="49.999995875077445" as="geometry">
            <mxPoint x="-139" y="51" as="offset" />
          </mxGeometry>
        </mxCell>
        <mxCell id="jNaZMfqbhY5TBQwAqyAb-76" value="Storage Level" style="edgeLabel;html=1;align=center;verticalAlign=middle;resizable=0;points=[];fontColor=#7fba42;fontStyle=1;fontSize=28;labelBorderColor=none;textShadow=0;labelBackgroundColor=none;" parent="1" vertex="1" connectable="0">
          <mxGeometry x="719.9991750154684" y="49.999995875077445" as="geometry">
            <mxPoint x="-139" y="51" as="offset" />
          </mxGeometry>
        </mxCell>
        <mxCell id="jNaZMfqbhY5TBQwAqyAb-77" value="Business Level" style="edgeLabel;html=1;align=center;verticalAlign=middle;resizable=0;points=[];fontColor=#7fba42;fontStyle=1;fontSize=28;labelBorderColor=none;textShadow=0;labelBackgroundColor=none;" parent="1" vertex="1" connectable="0">
          <mxGeometry x="1089.9991750154684" y="49.999995875077445" as="geometry">
            <mxPoint x="-139" y="51" as="offset" />
          </mxGeometry>
        </mxCell>
        <mxCell id="jNaZMfqbhY5TBQwAqyAb-78" value="" style="sketch=0;pointerEvents=1;shadow=0;dashed=0;html=1;strokeColor=none;labelPosition=center;verticalLabelPosition=bottom;verticalAlign=top;outlineConnect=0;align=center;shape=mxgraph.office.users.users;fillColor=#7FBA42;" parent="1" vertex="1">
          <mxGeometry x="1050" y="322.5" width="53" height="46.5" as="geometry" />
        </mxCell>
        <mxCell id="jNaZMfqbhY5TBQwAqyAb-80" value="&lt;span style=&quot;color: rgb(127, 186, 66); font-family: Helvetica; font-size: 18px; font-style: normal; font-variant-ligatures: normal; font-variant-caps: normal; font-weight: 700; letter-spacing: normal; orphans: 2; text-align: center; text-indent: 0px; text-transform: none; widows: 2; word-spacing: 0px; -webkit-text-stroke-width: 0px; white-space: nowrap; text-decoration-thickness: initial; text-decoration-style: initial; text-decoration-color: initial; float: none; display: inline !important;&quot;&gt;Analitics&lt;/span&gt;" style="text;whiteSpace=wrap;html=1;textShadow=0;labelBackgroundColor=none;" parent="1" vertex="1">
          <mxGeometry x="1040" y="369" width="100" height="50" as="geometry" />
        </mxCell>
        <mxCell id="jNaZMfqbhY5TBQwAqyAb-83" value="CSV" style="text;strokeColor=none;align=center;fillColor=none;html=1;verticalAlign=middle;whiteSpace=wrap;rounded=0;fontSize=16;textShadow=0;fontColor=#7fba42;fontStyle=1" parent="1" vertex="1">
          <mxGeometry x="217.12" y="450" width="60" height="30" as="geometry" />
        </mxCell>
        <mxCell id="jNaZMfqbhY5TBQwAqyAb-85" value="&lt;span style=&quot;color: rgb(127, 186, 66); font-family: Helvetica; font-size: 18px; font-style: normal; font-variant-ligatures: normal; font-variant-caps: normal; font-weight: 700; letter-spacing: normal; orphans: 2; text-align: center; text-indent: 0px; text-transform: none; widows: 2; word-spacing: 0px; -webkit-text-stroke-width: 0px; white-space: nowrap; text-decoration-thickness: initial; text-decoration-style: initial; text-decoration-color: initial; float: none; display: inline !important;&quot;&gt;Business&lt;/span&gt;" style="text;whiteSpace=wrap;html=1;textShadow=0;labelBackgroundColor=none;" parent="1" vertex="1">
          <mxGeometry x="870" y="553" width="100" height="50" as="geometry" />
        </mxCell>
        <mxCell id="jNaZMfqbhY5TBQwAqyAb-86" value="&lt;span style=&quot;color: rgb(127, 186, 66); font-family: Helvetica; font-size: 18px; font-style: normal; font-variant-ligatures: normal; font-variant-caps: normal; font-weight: 700; letter-spacing: normal; orphans: 2; text-align: center; text-indent: 0px; text-transform: none; widows: 2; word-spacing: 0px; -webkit-text-stroke-width: 0px; white-space: nowrap; text-decoration-thickness: initial; text-decoration-style: initial; text-decoration-color: initial; float: none; display: inline !important;&quot;&gt;Intelligence&lt;/span&gt;" style="text;whiteSpace=wrap;html=1;labelBackgroundColor=none;textShadow=0;" parent="1" vertex="1">
          <mxGeometry x="860" y="570" width="130" height="50" as="geometry" />
        </mxCell>
        <mxCell id="jNaZMfqbhY5TBQwAqyAb-87" value="" style="verticalLabelPosition=bottom;sketch=0;html=1;fillColor=#7fba42;strokeColor=none;verticalAlign=top;pointerEvents=1;align=center;shape=mxgraph.cisco_safe.business_icons.icon16;fontColor=#ffffff;" parent="1" vertex="1">
          <mxGeometry x="882.5" y="515.5" width="50" height="37.5" as="geometry" />
        </mxCell>
        <mxCell id="jNaZMfqbhY5TBQwAqyAb-90" value="" style="shape=flexArrow;endArrow=classic;html=1;rounded=0;strokeColor=#7fba42;fontSize=12;" parent="1" edge="1">
          <mxGeometry width="50" height="50" relative="1" as="geometry">
            <mxPoint x="960" y="427.75" as="sourcePoint" />
            <mxPoint x="1030" y="428" as="targetPoint" />
          </mxGeometry>
        </mxCell>
        <mxCell id="jNaZMfqbhY5TBQwAqyAb-91" value="" style="shape=flexArrow;endArrow=classic;html=1;rounded=0;strokeColor=#7fba42;fontSize=12;" parent="1" edge="1">
          <mxGeometry width="50" height="50" relative="1" as="geometry">
            <mxPoint x="140" y="427.88" as="sourcePoint" />
            <mxPoint x="210" y="429.13" as="targetPoint" />
          </mxGeometry>
        </mxCell>
        <mxCell id="jNaZMfqbhY5TBQwAqyAb-97" value="" style="sketch=0;pointerEvents=1;shadow=0;dashed=0;html=1;strokeColor=none;labelPosition=center;verticalLabelPosition=bottom;verticalAlign=top;outlineConnect=0;align=center;shape=mxgraph.office.users.users;fillColor=#7FBA42;" parent="1" vertex="1">
          <mxGeometry x="1050" y="456" width="53" height="46.5" as="geometry" />
        </mxCell>
        <mxCell id="jNaZMfqbhY5TBQwAqyAb-99" value="&lt;span style=&quot;color: rgb(127, 186, 66); font-family: Helvetica; font-size: 18px; font-style: normal; font-variant-ligatures: normal; font-variant-caps: normal; font-weight: 700; letter-spacing: normal; orphans: 2; text-align: center; text-indent: 0px; text-transform: none; widows: 2; word-spacing: 0px; -webkit-text-stroke-width: 0px; white-space: nowrap; text-decoration-thickness: initial; text-decoration-style: initial; text-decoration-color: initial; float: none; display: inline !important;&quot;&gt;Clients&lt;/span&gt;" style="text;whiteSpace=wrap;html=1;textShadow=0;labelBackgroundColor=none;" parent="1" vertex="1">
          <mxGeometry x="1050" y="520" width="100" height="50" as="geometry" />
        </mxCell>
        <mxCell id="jNaZMfqbhY5TBQwAqyAb-102" value="" style="shape=flexArrow;endArrow=classic;html=1;rounded=0;strokeColor=#7fba42;fontSize=12;" parent="1" edge="1">
          <mxGeometry width="50" height="50" relative="1" as="geometry">
            <mxPoint x="870" y="428.75" as="sourcePoint" />
            <mxPoint x="680" y="428.5" as="targetPoint" />
          </mxGeometry>
        </mxCell>
        <mxCell id="g1t-Stv2DLexX9b2Rynu-3" value="API" style="text;strokeColor=none;align=center;fillColor=none;html=1;verticalAlign=middle;whiteSpace=wrap;rounded=0;fontSize=16;textShadow=0;fontColor=#7fba42;fontStyle=1" parent="1" vertex="1">
          <mxGeometry x="217.12" y="339" width="60" height="30" as="geometry" />
        </mxCell>
        <mxCell id="g1t-Stv2DLexX9b2Rynu-4" value="&lt;span style=&quot;color: rgb(127, 186, 66); font-family: Helvetica; font-size: 18px; font-style: normal; font-variant-ligatures: normal; font-variant-caps: normal; font-weight: 700; letter-spacing: normal; orphans: 2; text-align: center; text-indent: 0px; text-transform: none; widows: 2; word-spacing: 0px; -webkit-text-stroke-width: 0px; white-space: nowrap; text-decoration-thickness: initial; text-decoration-style: initial; text-decoration-color: initial; float: none; display: inline !important;&quot;&gt;Business&lt;/span&gt;" style="text;whiteSpace=wrap;html=1;textShadow=0;labelBackgroundColor=none;" parent="1" vertex="1">
          <mxGeometry x="1040" y="502.5" width="100" height="50" as="geometry" />
        </mxCell>
        <mxCell id="im3trnVgjk5g96M-hLzO-1" value="" style="sketch=0;pointerEvents=1;shadow=0;dashed=0;html=1;strokeColor=none;fillColor=#7fba42;labelPosition=center;verticalLabelPosition=bottom;verticalAlign=top;outlineConnect=0;align=center;shape=mxgraph.office.services.online_hosted_services;aspect=fixed;" vertex="1" parent="1">
          <mxGeometry x="217.5" y="284" width="59.24" height="55" as="geometry" />
        </mxCell>
        <mxCell id="im3trnVgjk5g96M-hLzO-3" value="" style="sketch=0;pointerEvents=1;shadow=0;dashed=0;html=1;strokeColor=none;fillColor=#7fba42;labelPosition=center;verticalLabelPosition=bottom;verticalAlign=top;outlineConnect=0;align=center;shape=mxgraph.office.sites.wiki_site;aspect=fixed;" vertex="1" parent="1">
          <mxGeometry x="217.12" y="400.5" width="64.9" height="55" as="geometry" />
        </mxCell>
        <mxCell id="im3trnVgjk5g96M-hLzO-4" value="" style="sketch=0;pointerEvents=1;shadow=0;dashed=0;html=1;strokeColor=none;fillColor=#7fba42;labelPosition=center;verticalLabelPosition=bottom;verticalAlign=top;outlineConnect=0;align=center;shape=mxgraph.office.sites.my_site;aspect=fixed;" vertex="1" parent="1">
          <mxGeometry x="217.5" y="515.5" width="65.08" height="55" as="geometry" />
        </mxCell>
        <mxCell id="im3trnVgjk5g96M-hLzO-6" value="" style="sketch=0;pointerEvents=1;shadow=0;dashed=0;html=1;strokeColor=none;fillColor=#7fba42;labelPosition=center;verticalLabelPosition=bottom;verticalAlign=top;outlineConnect=0;align=center;shape=mxgraph.office.servers.monitoring_sql_reporting_services;fontColor=#7fba42;" vertex="1" parent="1">
          <mxGeometry x="885.5" y="391" width="49" height="59" as="geometry" />
        </mxCell>
        <mxCell id="im3trnVgjk5g96M-hLzO-7" value="&lt;span style=&quot;font-family: Helvetica; font-size: 18px; font-style: normal; font-variant-ligatures: normal; font-variant-caps: normal; letter-spacing: normal; orphans: 2; text-indent: 0px; text-transform: none; widows: 2; word-spacing: 0px; -webkit-text-stroke-width: 0px; white-space: nowrap; text-decoration-thickness: initial; text-decoration-style: initial; text-decoration-color: initial; float: none; display: inline !important;&quot;&gt;SQL&lt;/span&gt;" style="text;whiteSpace=wrap;html=1;textShadow=0;fontColor=#7fba42;labelBackgroundColor=none;align=center;fontStyle=1" vertex="1" parent="1">
          <mxGeometry x="857.5" y="452.5" width="100" height="50" as="geometry" />
        </mxCell>
      </root>
    </mxGraphModel>
  </diagram>
</mxfile>
